<svg width="58" height="45" viewBox="0 0 58 45" fill="none" xmlns="http://www.w3.org/2000/svg">
<ellipse cx="29" cy="40.5" rx="29" ry="4.5" fill="#C2D7DC"/>
<ellipse cx="34.5" cy="20" rx="22.5" ry="20" fill="#FFEEC2"/>
<ellipse cx="28.5" cy="20" rx="24.5" ry="20" fill="#2A3662"/>
<path d="M34.8359 25.7964L34.8623 24.8999C34.8799 24.3374 34.9326 23.7222 35.0205 23.0542L35.2314 21.4985C35.2754 21.1294 35.3193 20.7954 35.3633 20.4966C34.5283 21.4106 33.856 22.1226 33.3462 22.6323L31.8301 24.1089C28.4375 27.2817 26.416 28.8682 25.7656 28.8682C24.8076 28.8682 23.8013 28.6616 22.7466 28.2485C22.1753 28.02 21.8501 27.7827 21.771 27.5366C21.6479 27.229 21.5864 26.8115 21.5864 26.2842C21.5864 25.748 21.604 25.2559 21.6392 24.8076C21.6743 24.3594 21.7183 23.9155 21.771 23.4761C21.8237 23.0278 21.8765 22.6016 21.9292 22.1973C21.9907 21.7842 22.0391 21.4238 22.0742 21.1162C22.1621 20.4219 22.1797 20.0747 22.127 20.0747L17.2227 26.0996C14.9111 28.8154 13.5972 30.3184 13.2808 30.6084C12.604 31.2236 11.8569 31.5312 11.0396 31.5312C10.6353 31.5312 10.3013 31.4302 10.0376 31.228C9.77393 31.0259 9.64209 30.7754 9.64209 30.4766C9.64209 29.8789 9.89258 29.2549 10.3936 28.6045L22.1006 13.7202L23.4717 12.0723C25.1064 10.1475 26.1787 9.18506 26.6885 9.18506C27.4004 9.18506 28.0771 9.36523 28.7188 9.72559C29.29 10.042 29.6152 10.3496 29.6943 10.6484C29.7295 10.7627 29.6548 11.2944 29.4702 12.2437L29.0088 14.7354C28.4902 17.5127 28.231 19.3057 28.231 20.1143C28.231 20.9141 28.3232 21.314 28.5078 21.314C29.1055 21.314 30.2568 20.334 31.9619 18.374L36.2334 13.2588C37.1738 12.1777 37.7979 11.5625 38.1055 11.4131C38.1934 11.3691 38.3208 11.3472 38.4878 11.3472C38.6548 11.3472 38.8394 11.3691 39.0415 11.4131C39.2524 11.457 39.4634 11.5142 39.6743 11.5845C39.894 11.6548 40.105 11.7383 40.3071 11.835C40.5093 11.9316 40.6895 12.0327 40.8477 12.1382C41.1904 12.3667 41.3574 12.5557 41.3486 12.7051C41.3486 12.8457 41.3135 13.1577 41.2432 13.6411C41.1729 14.1157 41.085 14.6958 40.9795 15.3813C40.25 19.9253 39.8677 22.562 39.8325 23.2915C39.8062 24.021 39.8809 24.478 40.0566 24.6626C40.2412 24.8472 40.5093 24.9395 40.8608 24.9395C41.5024 24.9395 42.4341 24.5571 43.6558 23.7925C44.4819 23.2739 45.1631 23.0146 45.6992 23.0146C46.2441 23.0146 46.5166 23.2739 46.5166 23.7925C46.5166 24.3286 46.2266 24.979 45.6465 25.7437C44.8115 26.8511 43.5635 27.853 41.9023 28.7495C40.5049 29.4966 39.1777 29.8701 37.9209 29.8701C35.8643 29.8701 34.8359 28.5122 34.8359 25.7964Z" fill="white"/>
</svg>
